<svg id="Layer_1" enable-background="new 0 0 510 510" height="512" viewBox="0 0 510 510" width="512" xmlns="http://www.w3.org/2000/svg"><g id="XMLID_1591_"><path id="XMLID_1844_" d="m152.04 179.247 31.741 31.74 71.219-70.156v29.095h30v-79.926h-79.926v30h28.324l-49.458 48.719-31.9-31.899-127.61 127.611 21.213 21.213z"/><g><path d="m90 510h60c0-9.893 0-169.373 0-180h-60z"/><path d="m180 510h60c0-9.376 0-195.992 0-210h-60z"/><path d="m510 150-56.25-75 56.25-75c-10.1 0-185.748 0-195 0v270h-45v240h120v-240h-45v-120z"/><path d="m60 360h-60v150h60c0-6.925 0-143.1 0-150z"/></g></g></svg>